<svg height="512pt" preserveAspectRatio="xMidYMid meet" viewBox="0 0 512 512" width="512pt" xmlns="http://www.w3.org/2000/svg"><g transform="matrix(.1 0 0 -.1 0 512)"><path d="m3975 5108c-37-20-45-40-45-118 0-66 3-79 23-97 44-42 111-31 133 22 47 114-25 241-111 193z"/><path d="m4315 5108c-40-22-45-38-45-160 0-113 1-120 25-143 31-32 75-32 112-1 28 24 28 25 28 146s0 122-28 146c-30 26-60 30-92 12z"/><path d="m3975 4768c-40-22-45-38-45-160 0-113 1-120 25-143 31-32 75-32 111-1 26 22 28 30 32 119 5 114-7 161-48 182-34 18-48 18-75 3z"/><path d="m1345 3840c-805-567-1234-875-1262-906-57-64-88-161-79-246 28-268 317-397 543-243 21 14 41 25 45 25 5 0 8-45 8-100 0-63-4-100-10-100-20 0-112-94-133-135-12-25-22-66-25-110-6-100 21-168 94-234 31-28 60-51 65-51s9-69 9-160v-159l-29-15c-16-9-47-36-69-61-112-128-91-325 46-429l52-39v-152-152l-52-39c-31-24-63-60-82-94-28-49-31-64-31-140 0-71 4-93 25-133 33-65 95-120 164-146l57-21h1879 1879l57 21c69 26 131 81 164 146 21 40 25 62 25 133 0 77-3 90-31 140-36 64-107 123-171 140l-43 13v131 131l50 18c198 70 266 316 129 470-39 45-126 97-161 97-17 0-18 10-16 136l3 137 46 13c57 17 141 90 171 148 25 49 35 154 19 211-23 88-103 170-195 201l-46 16v79 79l78-56c100-73 139-92 204-101 74-12 149 0 214 33 191 96 240 355 100 521-15 18-137 114-271 213l-245 182v424 424h-340-340l-2-171-3-171-625 462c-344 254-629 466-635 470-6 5-539-364-1230-850zm2590-368c874-646 972-722 993-762 27-54 28-92 3-146-26-58-72-87-143-92-44-3-65 0-90 15-18 11-503 363-1078 783-575 419-1050 765-1057 767-6 2-488-326-1070-730s-1069-740-1082-747c-37-19-131-9-170 20-37 26-71 90-71 135 0 54 35 111 91 152 29 21 559 394 1177 829l1125 792 201-149c110-82 638-472 1171-867zm415 182v-275l-53 38c-29 21-105 76-169 123l-117 85v146c-1 80 2 149 6 152 3 4 80 7 170 7h163zm-1624 59c89-65 163-121 163-125 1-5-155-8-346-8-245 0-344 3-336 11 19 19 338 239 347 239 4 0 82-53 172-117zm581-425 167-123-72-3-72-3v-84-85h193 192l175-128 175-127-345-5c-190-3-346-7-347-8-60-61-58-117 4-150 15-9 145-12 458-12h436l-3-127-3-128h-595-595l-3 428-2 427h-510-510l-2-427-3-428-637-3-638-2v130 130h476c487 0 502 1 531 39 21 28 15 76-13 105l-26 26-386 2-385 3 184 128 184 127h227 228v85 84l-101 3-101 3 173 122 174 121 602 1 603 1zm-837-428v-130h-125-125v130 130h125 125zm430 0v-130h-125-125v130 130h125 125zm-430-430v-130h-125-125v130 130h125 125zm430 0v-130h-125-125v130 130h125 125zm1581-339c34-34 39-44 39-86s-5-52-39-86l-39-39h-1882-1882l-39 39c-34 34-39 44-39 86s5 52 39 86l39 39h1882 1882zm-2521-511v-130h-595-595v130 130h595 595zm1028-642 2-768h-430-430v763c0 420 3 767 7 770 3 4 196 6 427 5l421-3zm1280 640 3-128h-556-555v130 130l553-2 552-3zm-2308-428v-131l-637 3c-581 3-640 5-662 20-81 57-80 168 2 218 31 19 55 20 665 20h632zm2497 110c82-50 83-161 2-218-22-15-81-17-661-20l-638-3v131 130h633c609 0 633-1 664-20zm-2497-535v-125h-595-595v125 125h595 595zm2310 0v-125h-555-555v125 125h555 555zm-2310-425v-130h-630c-696 0-671-2-710 63-46 74-9 161 80 190 8 3 295 6 638 6l622 1zm2499 108c81-57 80-168-2-218-31-19-55-20-664-20h-633v130 131l638-3c580-3 639-5 661-20z"/><path d="m2245 995c-71-70 24-177 109-122 32 21 42 67 22 105-26 50-91 58-131 17z"/><path d="m4295 4665c-25-24-25-25-25-228 0-190 1-205 20-225 42-45 107-36 135 18 14 26 16 62 13 220-3 184-4 189-27 214-33 35-83 35-116 1z"/><path d="m3955 4325c-44-43-31-112 25-135 86-35 156 83 82 140-34 27-77 25-107-5z"/></g></svg>