<svg viewBox="0 0 50 50" xmlns="http://www.w3.org/2000/svg"><path d="m33 29c-1.796875 0-3 1.515625-3 4s.890625 5.046875 3 5c2.21875-.050781 3.019531-2.222656 3-5-.015625-2.484375-1.207031-4-3-4zm11.261719-11.933594c.273437-1.34375.390625-6.101562-1.582031-11.066406 0 0-4.53125.496094-11.382813 5.199219-1.433594-.398438-3.867187-.597656-6.296875-.597656-2.429687 0-4.859375.199218-6.300781.59375-6.847656-4.699219-11.375-5.195313-11.375-5.195313-1.976563 4.964844-1.878906 9.609375-1.585938 11.066406-2.320312 2.519532-3.738281 5.542969-3.738281 9.675782 0 17.964843 14.90625 18.253906 18.667969 18.253906.851562 0 2.542969 0 4.332031.003906 1.789063-.003906 3.484375-.003906 4.332031-.003906 3.761719 0 18.667969-.289063 18.667969-18.253906 0-4.132813-1.417969-7.15625-3.738281-9.675782zm-19.121094 25.933594h-.140625c-9.429687 0-16.84375-1.339844-16.84375-10.503906 0-2.195313.777344-4.230469 2.617188-5.921875 3.070312-2.820313 8.261718-1.328125 14.15625-1.328125h.140625c5.894531 0 11.089843-1.488281 14.160156 1.328125 1.839844 1.691406 2.613281 3.726562 2.613281 5.921875 0 9.164062-7.273437 10.503906-16.703125 10.503906zm-8.140625-14c-1.792969 0-3 2.015625-3 4.5s1.207031 4.5 3 4.5c1.796875 0 3-2.015625 3-4.5s-1.203125-4.5-3-4.5z"/></svg>