<svg height="344pt" preserveAspectRatio="xMidYMid meet" viewBox="0 0 344 344" width="344pt" xmlns="http://www.w3.org/2000/svg"><g transform="matrix(.1 0 0 -.1 0 344)"><path d="m2222 3047c-41-41-72-81-72-93 0-30 129-154 161-154 34 0 159 125 159 160 0 29-128 160-157 160-10 0-51-33-91-73z"/><path d="m1847 2772c-27-29-20-72 18-130 74-109 189-201 310-248 41-16 76-19 200-19 173 0 261 20 336 78 77 59 84 75 84 192 0 87-3 106-19 124-27 29-69 26-119-8-193-132-391-147-605-46-41 19-85 44-99 55-32 25-84 26-106 2z"/><path d="m1068 2680c-103-18-225-75-290-137-32-30-44-74-28-102 12-24 156-135 187-145 15-5 42 4 88 29 56 29 77 35 128 35 100-1 173-45 220-135 61-116-11-313-137-374-36-18-61-21-180-21h-138l-29-29c-16-16-29-39-29-50 0-27 93-212 115-231 13-10 58-16 159-20 161-6 204-20 275-91 59-60 85-120 89-210 4-66 1-82-23-128-49-98-157-177-277-202-100-22-336 8-453 56-68 29-173 104-218 157-23 28-65 84-92 126-53 81-72 94-100 66-33-34 2-210 70-345 69-136 179-240 328-309 132-61 199-74 377-75 145 0 160 2 235 28 184 64 338 194 414 348 41 84 71 192 70 259 0 68-28 192-57 254l-30 63 124 7c210 11 282 44 449 206 99 96 139 120 200 120 30-1 97-34 122-61 50-55 53-77 53-396 0-340-1-342-82-382-117-56-314 1-452 131-101 95-120 80-115-89 4-105 7-124 32-175 67-136 216-208 433-208 122 0 202 22 290 78 101 66 172 159 200 267 17 61 20 663 4 746-25 132-128 278-241 341-156 86-337 88-492 6-36-20-103-74-167-135-59-56-119-107-134-113-15-5-88-10-163-10-125 0-135 1-128 18 40 105 55 281 31 392-24 113-68 193-151 277-134 134-309 193-487 163z"/></g></svg>