<svg height="512pt" preserveAspectRatio="xMidYMid meet" viewBox="0 0 512 512" width="512pt" xmlns="http://www.w3.org/2000/svg"><g transform="matrix(.1 0 0 -.1 0 512)"><path d="m3990 5099c-162-34-311-108-430-215-36-32-703-692-1483-1468l-1417-1411-327-895c-360-989-355-971-301-1042 36-48 90-72 142-65 83 12 1639 496 1675 522 20 13 716 705 1547 1537 1594 1596 1560 1561 1639 1732 203 439 23 974-406 1210-191 105-425 140-639 95zm385-334c303-101 483-421 406-725-34-137-72-200-195-328-60-62-111-111-112-109-2 2-11 42-19 89-68 392-371 695-762 763-48 8-88 17-90 19-2 1 47 52 109 112 124 120 210 172 330 199 94 22 234 14 333-20zm-691-635c43-11 105-34 139-52 82-43 212-173 255-255 70-134 90-301 52-448-42-164 4-114-1101-1219l-1008-1010 30 140c34 156 33 199-5 248-45 59-73 66-269 66h-176l-3 189c-3 173-5 192-24 217-48 64-62 69-230 72l-155 3 945 940c520 517 967 958 993 980 158 132 362 179 557 129zm-2402-2559c3-173 5-192 24-217 48-65 60-69 245-72 93-2 169-6 169-10 0-18-103-488-109-494-3-4-132-46-286-93s-286-88-292-90c-8-3-26 25-46 68-62 132-159 238-284 309-29 16-55 33-57 37-3 4 56 173 130 376s134 371 134 372c0 2 83 3 184 3h185z"/><path d="m3615 3826c-16-8-402-387-857-843-898-899-851-846-833-940 9-49 69-109 118-118 94-18 40-66 945 838 605 605 835 841 843 866 22 67-2 139-63 184-34 25-113 32-153 13z"/></g></svg>