<?xml version="1.0" encoding="iso-8859-1"?>
<!-- Generator: Adobe Illustrator 19.0.0, SVG Export Plug-In . SVG Version: 6.00 Build 0)  -->
<svg xmlns="http://www.w3.org/2000/svg" xmlns:xlink="http://www.w3.org/1999/xlink" version="1.1" id="Layer_1" x="0px" y="0px" viewBox="0 0 512 512" style="enable-background:new 0 0 512 512;" xml:space="preserve" width="512" height="512">
<g>
	<path d="M451,92.02v231.832l-32.893,24.586l17.966,24.033l-24.023,17.959l-17.968-24.034l-48.067,35.929L328.056,378.3   l48.065-35.929l-17.963-24.027l24.023-17.959l17.963,24.027L421,308.822V61.927C376.482,24.018,318.919,0,256,0   C115.39,0,0,115.39,0,256s115.39,256,256,256s256-115.39,256-256C512,193.576,488.375,136.394,451,92.02z M91,256H61   c0-107.52,87.48-195,195-195v30C165.019,91,91,165.019,91,256z M151,256c0-57.891,47.109-105,105-105s105,47.109,105,105   s-47.109,105-105,105S151,313.891,151,256z"/>
	<path d="M256,181c-41.353,0-75,33.647-75,75s33.647,75,75,75s75-33.647,75-75S297.353,181,256,181z M256,301   c-24.814,0-45-20.186-45-45s20.186-45,45-45s45,20.186,45,45S280.814,301,256,301z"/>
	<path d="M256,241c-8.276,0-15,6.724-15,15s6.724,15,15,15s15-6.724,15-15S264.276,241,256,241z"/>
	<path d="M451,0h-30v61.927c10.803,9.199,20.858,19.241,30,30.093V0z"/>
</g>















</svg>
